<svg id="Layer_1" data-name="Layer 1" xmlns="http://www.w3.org/2000/svg" viewBox="0 0 32 32">
  <title>eslint@2x</title>
  <g>
    <g opacity="0.9">
      <path d="M30,11.92q-0.22822,1.04675-.45656,2.09347-1.23121,5.61584-2.4574,11.2327a0.59254,0.59254,0,0,1-.44757.49791q-5.89256,1.852-11.78221,3.71275c-0.51862.16356-1.04112,0.31669-1.55393,0.496a0.59233,0.59233,0,0,1-.661-0.13309q-3.8941-3.42739-7.80047-6.84161c-0.8699-.76217-1.73192-1.5332-2.61612-2.27936a0.55379,0.55379,0,0,1-.20076-0.624q0.597-2.69561,1.18214-5.3937C3.78439,12.0366,4.36781,9.39317,4.93387,6.74623A0.60777,0.60777,0,0,1,5.41834,6.246q5.06718-1.5905,10.13052-3.19254c1.04773-.33074,2.09838-0.65344,3.13918-1.00373a0.64451,0.64451,0,0,1,.71819.14786q4.8285,4.24118,9.66837,8.47012,0.31073,0.272.61931,0.54638A0.91146,0.91146,0,0,1,30,11.92ZM15.96239,25.96557c1.85163,0,3.70329-.00434,5.55488.00451A0.63538,0.63538,0,0,0,22.138,25.63q2.70041-4.55053,5.41794-9.09143A0.82572,0.82572,0,0,0,27.527,15.463a3.3407,3.3407,0,0,1-.28685-0.47574q-2.5228-4.25369-5.03892-8.5111a0.81185,0.81185,0,0,0-.8-0.44867c-3.56938.01045-7.13887,0.01568-10.70815-.005a0.97757,0.97757,0,0,0-.97287.55439q-2.67074,4.54827-5.38249,9.07372a0.64933,0.64933,0,0,0,.02332.75166q2.72517,4.574,5.43354,9.15745a0.75026,0.75026,0,0,0,.74679.41216C12.3483,25.95878,14.15538,25.96582,15.96239,25.96557Z" fill="#4339d6"/>
    </g>
    <path d="M27.527,15.463a3.33984,3.33984,0,0,1-.28685-0.47573q-2.5228-4.25369-5.03892-8.5111a0.81186,0.81186,0,0,0-.8-0.44868c-3.56939.01046-7.13887,0.01567-10.70816-.005a0.97757,0.97757,0,0,0-.97287.55437Q7.0495,11.12516,4.33775,15.65058a0.64933,0.64933,0,0,0,.02331.75167q2.72518,4.574,5.43355,9.15746a0.75025,0.75025,0,0,0,.7468.41215c1.80692-.0131,3.614-0.006,5.421-0.00629,1.85163,0,3.70329-.00435,5.55487.00451A0.63545,0.63545,0,0,0,22.138,25.63q2.7004-4.55055,5.41794-9.09143A0.82576,0.82576,0,0,0,27.527,15.463Zm-4.11536.88244q-1.74378,2.912-3.4749,5.831a0.40751,0.40751,0,0,1-.39815.21809c-1.18756-.00566-2.37515-0.00289-3.56274-0.00289-1.159.00016-2.318-.00435-3.47687,0.004a0.48118,0.48118,0,0,1-.479-0.26434q-1.73282-2.942-3.48491-5.87331a0.41648,0.41648,0,0,1-.015-0.48212q1.73559-2.90442,3.45217-5.81962a0.627,0.627,0,0,1,.624-0.35557c2.28924,0.01326,4.5786.00992,6.86791,0.00321a0.52072,0.52072,0,0,1,.5131.28777q1.60675,2.73449,3.23181,5.45877a2.14317,2.14317,0,0,0,.184.30512A0.52956,0.52956,0,0,1,23.41167,16.34542Z" fill="#7d7ce8" opacity="0.8"/>
  </g>
</svg>
