<svg id="Layer_1" data-name="Layer 1" xmlns="http://www.w3.org/2000/svg" viewBox="0 0 16 16">
  <title>eslint</title>
  <g>
    <g opacity="0.9">
      <path d="M15,5.96q-0.11411.52337-.22828,1.04673-0.6156,2.80792-1.2287,5.61635a0.29627,0.29627,0,0,1-.22378.249q-2.94628.926-5.8911,1.85637c-0.25931.08178-.52056,0.15835-0.777,0.248a0.29616,0.29616,0,0,1-.33052-0.06654q-1.94705-1.7137-3.90023-3.4208c-0.435-.38109-0.866-0.7666-1.30806-1.13968a0.2769,0.2769,0,0,1-.10038-0.312q0.29851-1.3478.59107-2.69685c0.28916-1.32223.58087-2.64394,0.8639-3.96741A0.30389,0.30389,0,0,1,2.70917,3.123q2.53359-.79525,5.06526-1.59627C8.29829,1.36138,8.82362,1.2,9.344,1.02489a0.32226,0.32226,0,0,1,.3591.07393q2.41425,2.12059,4.83419,4.23506,0.15537,0.136.30965,0.27319A0.45573,0.45573,0,0,1,15,5.96ZM7.9812,12.98279c0.92582,0,1.85164-.00217,2.77744.00225a0.31769,0.31769,0,0,0,.31039-0.17q1.3502-2.27527,2.709-4.54571a0.41286,0.41286,0,0,0-.01447-0.5378,1.67035,1.67035,0,0,1-.14342-0.23787q-1.2614-2.12685-2.51946-4.25555a0.40593,0.40593,0,0,0-.4-0.22433C8.91594,3.019,7.1312,3.02158,5.34655,3.01124a0.48878,0.48878,0,0,0-.48644.2772Q3.52475,5.56257,2.16887,7.82529a0.32466,0.32466,0,0,0,.01166.37583q1.36259,2.287,2.71677,4.57873a0.37513,0.37513,0,0,0,.37339.20608C6.17415,12.97939,7.07769,12.98291,7.9812,12.98279Z" fill="#4339d6"/>
    </g>
    <path d="M13.76352,7.73149a1.66992,1.66992,0,0,1-.14342-0.23786q-1.2614-2.12684-2.51946-4.25555a0.40593,0.40593,0,0,0-.4-0.22434c-1.7847.00523-3.56943,0.00784-5.35408-.0025a0.48878,0.48878,0,0,0-.48644.27718Q3.52475,5.56258,2.16887,7.82529a0.32467,0.32467,0,0,0,.01165.37583q1.36259,2.287,2.71677,4.57873a0.37512,0.37512,0,0,0,.3734.20608c0.90346-.00655,1.807-0.003,2.7105-0.00315,0.92582,0,1.85164-.00218,2.77744.00226a0.31772,0.31772,0,0,0,.31039-0.17q1.3502-2.27527,2.709-4.54572A0.41288,0.41288,0,0,0,13.76352,7.73149Zm-2.05768.44122q-0.87189,1.456-1.73745,2.9155a0.20375,0.20375,0,0,1-.19908.109c-0.59378-.00283-1.18757-0.00145-1.78137-0.00145-0.57948.00008-1.159-.00218-1.73843,0.002A0.24059,0.24059,0,0,1,6.01,11.06565Q5.14361,9.59463,4.26756,8.129a0.20824,0.20824,0,0,1-.00748-0.24106Q5.12788,6.43573,5.98617,4.97813a0.3135,0.3135,0,0,1,.312-0.17779c1.14462,0.00663,2.2893.005,3.434,0.00161a0.26036,0.26036,0,0,1,.25655.14388Q10.792,6.31308,11.60456,7.67522a1.07159,1.07159,0,0,0,.092.15256A0.26478,0.26478,0,0,1,11.70584,8.17271Z" fill="#7d7ce8" opacity="0.8"/>
  </g>
</svg>
