<svg id="Layer_1" data-name="Layer 1" xmlns="http://www.w3.org/2000/svg" viewBox="0 0 32 32">
  <title>jsHint@2x</title>
  <g>
    <rect x="2" y="2" width="28" height="28" fill="#f26522" opacity="0.6"/>
    <path d="M22.53372,22.05c2.52853,0.58242,3.07263,1.10879,3.07263,2.08086v0.03828c0,1.01172-.9345,1.71035-2.4118,1.71035-0.04021,0-.07458-0.00957-0.11414-0.01094V25.8877H18v2.11094l5.08236-.0041c0.01816,0.00137.035,0.0041,0.035,0.0041C25.99611,27.99864,28,26.48379,28,23.93672v-0.041c0-2.25313-1.47925-3.284-4.35733-3.984-2.62646-.62207-3.249-1.08965-3.249-2.13965V17.73242c0-.89414.81647-1.61328,2.21725-1.61328l0.05058-.0123v0.0041h3.72374V14H22.8917l-0.00195.01914C22.80739,14.01641,22.73346,14,22.64981,14,19.94553,14,18,15.61465,18,17.94707v0.03965C18,20.49414,19.63554,21.35,22.53372,22.05Z" fill="#231f20" opacity="0.6"/>
    <g opacity="0.6">
      <path d="M7.12841,25.77156L8.691,24.11468a3.31735,3.31735,0,0,0,2.71848,1.63761c1.27365,0,2.14212-.86858,2.14212-2.72133V14H16v9.10963a5.07776,5.07776,0,0,1-1.27208,3.667A4.45031,4.45031,0,0,1,11.44878,28,5.05315,5.05315,0,0,1,7.12841,25.77156Z" fill="#231f20"/>
    </g>
  </g>
</svg>
