<svg id="Layer_1" data-name="Layer 1" xmlns="http://www.w3.org/2000/svg" viewBox="0 0 16 16">
  <title>jsHint</title>
  <g>
    <rect x="1" y="1" width="14" height="14" fill="#f26522" opacity="0.6"/>
    <path d="M11.26686,11.025c1.26427,0.29121,1.53632.55439,1.53632,1.04043v0.01914a1.01011,1.01011,0,0,1-1.2059.85518c-0.0201,0-.03729-0.00479-0.05707-0.00547v0.00957H9v1.05547l2.54118-.00205,0.01751,0.00205c1.43936,0,2.44131-.75742,2.44131-2.031V11.94785c0-1.12656-.73962-1.642-2.17866-1.992-1.31323-.311-1.62451-0.54482-1.62451-1.06982V8.86621a0.93963,0.93963,0,0,1,1.10863-.80664l0.02529-.00615V8.05547h1.86187V7H11.44585l-0.001.00957C11.4037,7.0082,11.36673,7,11.3249,7A2.0825,2.0825,0,0,0,9,8.97354V8.99336C9,10.24707,9.81777,10.675,11.26686,11.025Z" fill="#231f20" opacity="0.6"/>
    <g opacity="0.6">
      <path d="M3.56421,12.88578l0.78131-.82844a1.65867,1.65867,0,0,0,1.35924.81881,1.12,1.12,0,0,0,1.07106-1.36067V7H8v4.55482a2.53888,2.53888,0,0,1-.636,1.83349A2.22516,2.22516,0,0,1,5.72439,14,2.52658,2.52658,0,0,1,3.56421,12.88578Z" fill="#231f20"/>
    </g>
  </g>
</svg>
