<svg id="Layer_1" data-name="Layer 1" xmlns="http://www.w3.org/2000/svg" viewBox="0 0 32 32">
  <title>jsTestFile@2x</title>
  <g>
    <rect x="2" y="18" width="30" height="14" fill="#f26522" opacity="0.6"/>
    <path d="M15.41357,25.75c1.90381,0.416,2.31348.792,2.31348,1.48633v0.02734c0,0.72266-.70361,1.22168-1.81592,1.22168-0.03027,0-.05615-0.00684-0.08594-0.00781v0.01367H12V29.999l3.82666-.00293L15.853,29.999c2.16748,0,3.67627-1.082,3.67627-2.90137v-0.0293c0-1.60937-1.11377-2.3457-3.28076-2.8457-1.97754-.44434-2.44629-0.77832-2.44629-1.52832V22.666c0-.63867.61475-1.15234,1.66943-1.15234l0.03809-.00879v0.00293h2.80371V20H15.68311l-0.00146.01367C15.61963,20.01168,15.564,20,15.501,20,13.46484,20,12,21.15328,12,22.8193v0.02832C12,24.63863,13.23145,25.25,15.41357,25.75Z" fill="#231f20" opacity="0.6"/>
    <g opacity="0.6">
      <path d="M4.66315,28.40822l1.11616-1.18349a2.36953,2.36953,0,0,0,1.94177,1.16972c0.90975,0,1.53009-.62041,1.53009-1.94381V20H11v6.50688a3.627,3.627,0,0,1-.90863,2.61927A3.17879,3.17879,0,0,1,7.74913,30,3.60939,3.60939,0,0,1,4.66315,28.40822Z" fill="#231f20"/>
    </g>
    <g>
      <polygon points="5.892 10 0 4.919 5.892 0 5.892 10" fill="#f2510c" opacity="0.9"/>
      <polygon points="11.229 0 17.092 4.893 7.893 12.826 7 13.596 6.107 12.826 4 11.009 4 16 26 16 26 0 11.229 0" fill="#9aa7b0" opacity="0.7" style="isolation: isolate"/>
      <polygon points="8.108 10 14 4.919 8.108 0 8.108 10" fill="#009e00" opacity="0.9"/>
    </g>
  </g>
</svg>
