<svg id="Layer_1" data-name="Layer 1" xmlns="http://www.w3.org/2000/svg" viewBox="0 0 16 16">
  <title>jsx</title>
  <g>
    <g>
      <polygon points="6 0 2 4 6 4 6 0" fill="#9aa7b0" opacity="0.7" style="isolation: isolate"/>
      <polygon points="7 0 7 4 7 5 6 5 2 5 2 8 13 8 13 0 7 0" fill="#9aa7b0" opacity="0.7" style="isolation: isolate"/>
    </g>
    <rect x="1" y="9" width="15" height="7" fill="#f26522" opacity="0.6"/>
    <path d="M8.257,12.11133c-1.05054-.22217-1.2995-0.38916-1.2995-0.76416V11.333a0.73775,0.73775,0,0,1,.88694-0.57617,0.0165,0.0165,0,0,0,.012-0.00391l0.00793,0.001H9.35408V10H7.95664l-0.00082.00684C7.923,10.00586,7.89344,10,7.85979,10A1.61237,1.61237,0,0,0,6,11.40967v0.01416c0,0.89551.65413,1.20117,1.81356,1.45117,1.01115,0.208,1.22892.396,1.22892,0.74316v0.01367a0.79588,0.79588,0,0,1-.96464.61084c-0.01614,0-.02982-0.00342-0.04569-0.00391v0.00684h-1.558v0.75391L8.033,14.998,8.05431,15C9.19841,15,10,14.4585,10,13.54883V13.53418C10,12.72949,9.40825,12.36133,8.257,12.11133Z" fill="#231f20" opacity="0.6"/>
    <g opacity="0.6">
      <path d="M1.83158,14.20413l0.55808-.59174a1.18477,1.18477,0,0,0,.97089.58486,0.8,0.8,0,0,0,.765-0.9719V10H5v3.25344a1.81349,1.81349,0,0,1-.45431,1.30963A1.5894,1.5894,0,0,1,3.37456,15,1.8047,1.8047,0,0,1,1.83158,14.20413Z" fill="#231f20"/>
    </g>
    <g opacity="0.6">
      <path d="M14.93253,10l-1.64386,2.44271L15,15H14.02312l-1.2462-1.90706L11.53731,15h-0.95L12.292,12.45725,10.65477,10h0.97688l1.17215,1.81459L13.98253,10h0.95Z" fill="#231f20"/>
    </g>
  </g>
</svg>
