<svg id="Layer_1" data-name="Layer 1" xmlns="http://www.w3.org/2000/svg" viewBox="0 0 32 32">
  <title>jsx@2x</title>
  <g>
    <g>
      <polygon points="12 0 4 8 12 8 12 0" fill="#9aa7b0" opacity="0.7" style="isolation: isolate"/>
      <rect x="2" y="18" width="30" height="14" fill="#f26522" opacity="0.6"/>
      <polygon points="14 0 14 8 14 10 12 10 4 10 4 16 26 16 26 0 14 0" fill="#9aa7b0" opacity="0.7" style="isolation: isolate"/>
    </g>
    <path d="M16.41357,25.75c1.90381,0.416,2.31348.792,2.31348,1.48633v0.02734c0,0.72266-.70361,1.22168-1.81592,1.22168-0.03027,0-.05615-0.00684-0.08594-0.00781v0.01367H13V29.999l3.82666-.00293L16.853,29.999c2.16748,0,3.67627-1.082,3.67627-2.90137v-0.0293c0-1.60937-1.11377-2.3457-3.28076-2.8457-1.97754-.44434-2.44629-0.77832-2.44629-1.52832V22.666c0-.63867.61475-1.15234,1.66943-1.15234l0.03809-.00879v0.00293h2.80371V20H16.68311l-0.00146.01367C16.61963,20.01172,16.564,20,16.501,20,14.46484,20,13,21.15332,13,22.81934v0.02832C13,24.63867,14.23145,25.25,16.41357,25.75Z" fill="#231f20" opacity="0.6"/>
    <g opacity="0.6">
      <path d="M4.66315,28.40826l1.11616-1.18349A2.36953,2.36953,0,0,0,7.72108,28.3945c0.90975,0,1.53009-.62041,1.53009-1.94381V20H11v6.50688a3.627,3.627,0,0,1-.90863,2.61927A3.17879,3.17879,0,0,1,7.74913,30,3.60939,3.60939,0,0,1,4.66315,28.40826Z" fill="#231f20"/>
    </g>
    <g opacity="0.6">
      <path d="M30.05243,20l-3.42466,4.88543L30.193,30H28.15784l-2.5962-3.81412L22.97915,30H21l3.5515-5.0855L21.14055,20h2.03514l2.44194,3.62917L28.07328,20h1.97915Z" fill="#231f20"/>
    </g>
  </g>
</svg>
