<svg id="Layer_1" data-name="Layer 1" xmlns="http://www.w3.org/2000/svg" viewBox="0 0 16 16">
  <title>TSX</title>
  <g>
    <g>
      <polygon points="6 0 2 4 6 4 6 0" fill="#9aa7b0" opacity="0.7" style="isolation: isolate"/>
      <polygon points="7 0 7 4 7 5 6 5 2 5 2 8 13 8 13 0 7 0" fill="#9aa7b0" opacity="0.7" style="isolation: isolate"/>
    </g>
    <rect x="1" y="9" width="15" height="7" fill="#40b6e0" opacity="0.6"/>
    <g opacity="0.6">
      <path d="M3.56365,10.81424H2V10H6v0.81424H4.43693V15H3.56365V10.81424Z" fill="#231f20"/>
    </g>
    <path d="M8.73257,12.11133c-1.05054-.22217-1.2995-0.38916-1.2995-0.76416V11.333A0.73775,0.73775,0,0,1,8.32,10.75684a0.0165,0.0165,0,0,0,.012-0.00391L8.34,10.75391H9.82962V10H8.43218l-0.00082.00684C8.39853,10.00586,8.369,10,8.33533,10a1.61237,1.61237,0,0,0-1.85979,1.40967v0.01416c0,0.89551.65413,1.20117,1.81356,1.45117,1.01115,0.208,1.22892.396,1.22892,0.74316v0.01367a0.79588,0.79588,0,0,1-.96464.61084c-0.01614,0-.02982-0.00342-0.04569-0.00391v0.00684h-1.558v0.75391L8.50851,14.998,8.52985,15c1.14411,0,1.94569-.5415,1.94569-1.45117V13.53418C10.47554,12.72949,9.88379,12.36133,8.73257,12.11133Z" fill="#231f20" opacity="0.6"/>
    <g opacity="0.6">
      <path d="M14.93884,10l-1.49012,2.44271L15,15H14.11448l-1.12965-1.90706L11.86116,15H11l1.54531-2.54275L11.06116,10h0.88552l1.06252,1.81459L14.07769,10h0.86116Z" fill="#231f20"/>
    </g>
  </g>
</svg>
