<svg id="Layer_1" data-name="Layer 1" xmlns="http://www.w3.org/2000/svg" viewBox="0 0 16 16">
  <title>TypeScriptTest</title>
  <g>
    <g>
      <polygon points="2.946 5 0 2.459 2.946 0 2.946 5" fill="#f2510c" opacity="0.9"/>
      <polygon points="5.615 0 8.546 2.446 3.946 6.413 3.5 6.798 3.054 6.413 2 5.504 2 8 13 8 13 0 5.615 0" fill="#9aa7b0" opacity="0.7" style="isolation: isolate"/>
      <polygon points="4.054 5 7 2.459 4.054 0 4.054 5" fill="#009e00" opacity="0.9"/>
    </g>
    <rect x="1" y="9" width="15" height="7" fill="#40b6e0" opacity="0.6"/>
    <g opacity="0.6">
      <path d="M3.56365,10.81424H2V10H6v0.81424H4.43693V15H3.56365V10.81424Z" fill="#231f20"/>
    </g>
    <path d="M9.257,12.11133c-1.05054-.22217-1.2995-0.38916-1.2995-0.76416V11.333a0.73775,0.73775,0,0,1,.88694-0.57617,0.0165,0.0165,0,0,0,.012-0.00391l0.00793,0.001h1.48964V10H8.95664l-0.00082.00684C8.923,10.00586,8.89344,10,8.85979,10A1.61237,1.61237,0,0,0,7,11.40967v0.01416c0,0.89551.65413,1.20117,1.81356,1.45117,1.01115,0.208,1.22892.396,1.22892,0.74316v0.01367a0.79588,0.79588,0,0,1-.96464.61084c-0.01614,0-.02982-0.00342-0.04569-0.00391v0.00684h-1.558v0.75391L9.033,14.998,9.05431,15C10.19841,15,11,14.4585,11,13.54883V13.53418C11,12.72949,10.40825,12.36133,9.257,12.11133Z" fill="#231f20" opacity="0.6"/>
  </g>
</svg>
